<svg width="24" height="24" viewBox="0 0 24 24" fill="none" xmlns="http://www.w3.org/2000/svg">
<path d="M18.3142 13.3571C17.1406 14.5619 15.5973 15.2238 13.9676 15.2238C13.5932 15.2238 13.2907 15.5262 13.2907 15.9C13.2907 16.2738 13.5932 16.5762 13.9676 16.5762C15.9645 16.5762 17.8534 15.769 19.2839 14.3C19.5455 14.0333 19.5383 13.6048 19.2719 13.3429C19.0055 13.081 18.5758 13.0881 18.3142 13.3548V13.3571Z" fill="#413D3C"/>
<path d="M23.5681 10.1286C23.1361 9.53095 22.4617 9.1881 21.7248 9.1881H18.9047C19.1855 8.65238 19.4231 8.09048 19.6127 7.51191C19.8431 6.81191 19.7231 6.03571 19.2911 5.44048C18.8591 4.84286 18.1846 4.5 17.4454 4.5H2.2813C1.54205 4.5 0.870014 4.84286 0.435588 5.44048C0.00356307 6.03571 -0.11405 6.80952 0.113963 7.51191C0.949212 10.0595 2.64851 12.1762 4.89985 13.4762C6.62075 17.1286 10.185 19.5 14.138 19.5C18.535 19.5 22.4521 16.5667 23.885 12.2C24.1154 11.4976 23.9954 10.7238 23.5633 10.1286H23.5681ZM1.88527 6.93095C1.82046 6.73571 1.90687 6.5881 1.94527 6.53333C1.99087 6.46905 2.09649 6.3619 2.2837 6.3619H17.4478C17.6326 6.3619 17.7382 6.46905 17.7862 6.53333C17.8246 6.5881 17.911 6.73571 17.8462 6.93095C17.5894 7.71429 17.2294 8.45952 16.7758 9.14048C16.7662 9.15476 16.7589 9.17143 16.7517 9.1881H6.56314C5.8239 9.1881 5.15186 9.53095 4.71983 10.1286C4.57103 10.3357 4.46062 10.5643 4.38861 10.8024C3.25335 9.77619 2.3869 8.44524 1.89007 6.92857L1.88527 6.93095ZM22.1209 11.619C20.94 15.219 17.7334 17.6381 14.1404 17.6381C10.5474 17.6381 7.34319 15.219 6.15992 11.619C6.09512 11.4238 6.18152 11.2762 6.21992 11.2214C6.26553 11.1571 6.37114 11.05 6.55835 11.05H21.7224C21.9073 11.05 22.0129 11.1571 22.0609 11.2214C22.0993 11.2762 22.1857 11.4238 22.1209 11.619Z" fill="#413D3C"/>
</svg>
