<svg width="24" height="24" viewBox="0 0 24 24" fill="none" xmlns="http://www.w3.org/2000/svg">
<path d="M22.2867 1.71628C19.9968 -0.573293 16.2738 -0.570893 13.9863 1.71628L1.71566 13.9849C-0.571886 16.2721 -0.571886 19.9968 1.71566 22.284C2.86063 23.4288 4.36326 24 5.86588 24C7.36851 24 8.87113 23.4288 10.0161 22.284L22.2843 10.0178C24.5719 7.7306 24.5719 4.00585 22.2843 1.71868L22.2867 1.71628ZM12.6133 5.64503L18.3574 11.3882L11.3891 18.3553L5.64505 12.6121L12.6133 5.64503ZM8.73671 21.0048C7.15247 22.5888 4.57689 22.5888 2.99265 21.0048C1.40841 19.4209 1.40841 16.8457 2.99265 15.2617L4.82892 13.4257L10.573 19.1689L8.73671 21.0048ZM21.005 8.73859L19.1687 10.5746L13.4246 4.83144L15.2609 2.99546C16.053 2.20347 17.0924 1.80748 18.1317 1.80748C19.1711 1.80748 20.2104 2.20347 21.0026 2.99546C22.5868 4.57944 22.5868 7.15461 21.0026 8.73859H21.005Z" fill="#413D3C"/>
<path d="M7.26049 18.1105C6.83323 18.1105 6.48518 18.4585 6.48518 18.8856C6.48518 19.3128 6.83323 19.6608 7.26049 19.6608C7.68776 19.6608 8.03581 19.3128 8.03581 18.8856C8.03581 18.4585 7.68776 18.1105 7.26049 18.1105Z" fill="#413D3C"/>
<path d="M5.11457 15.9649C4.68731 15.9649 4.33925 16.3129 4.33925 16.7401C4.33925 17.1673 4.68731 17.5153 5.11457 17.5153C5.54184 17.5153 5.88989 17.1673 5.88989 16.7401C5.88989 16.3129 5.54184 15.9649 5.11457 15.9649Z" fill="#413D3C"/>
<path d="M4.38725 18.8377C3.95999 18.8377 3.61194 19.1857 3.61194 19.6128C3.61194 20.04 3.95999 20.388 4.38725 20.388C4.81452 20.388 5.16257 20.04 5.16257 19.6128C5.16257 19.1857 4.81452 18.8377 4.38725 18.8377Z" fill="#413D3C"/>
<path d="M16.7419 4.33946C16.3147 4.33946 15.9666 4.68745 15.9666 5.11465C15.9666 5.54184 16.3147 5.88984 16.7419 5.88984C17.1692 5.88984 17.5172 5.54184 17.5172 5.11465C17.5172 4.68745 17.1692 4.33946 16.7419 4.33946Z" fill="#413D3C"/>
<path d="M18.8878 6.48502C18.4606 6.48502 18.1125 6.83301 18.1125 7.26021C18.1125 7.6874 18.4606 8.0354 18.8878 8.0354C19.3151 8.0354 19.6632 7.6874 19.6632 7.26021C19.6632 6.83301 19.3151 6.48502 18.8878 6.48502Z" fill="#413D3C"/>
<path d="M19.6151 3.61226C19.1879 3.61226 18.8398 3.96026 18.8398 4.38745C18.8398 4.81464 19.1879 5.16264 19.6151 5.16264C20.0424 5.16264 20.3905 4.81464 20.3905 4.38745C20.3905 3.96026 20.0424 3.61226 19.6151 3.61226Z" fill="#413D3C"/>
</svg>
