<svg width="24" height="24" viewBox="0 0 24 24" fill="none" xmlns="http://www.w3.org/2000/svg">
<path d="M20.3116 0H3.68846C1.65586 0 0 1.65343 0 3.68843V20.3116C0 22.3442 1.65346 24 3.68846 24H20.3116C22.3442 24 24 22.3466 24 20.3116V3.68843C24 1.65583 22.3466 0 20.3116 0ZM22.1114 20.3092C22.1114 21.3027 21.3027 22.109 20.3116 22.109H3.68846C2.69496 22.109 1.88864 21.3003 1.88864 20.3092V3.68843C1.88864 2.69493 2.69736 1.88861 3.68846 1.88861H20.3116C21.3051 1.88861 22.1114 2.69733 22.1114 3.68843V20.3116V20.3092Z" fill="#413D3C"/>
<path d="M12.0012 2.71653C8.07281 2.71653 4.57874 4.46355 3.09569 7.17048C2.9709 7.40086 3.00693 7.68403 3.18931 7.87361L6.60416 11.4421C6.71695 11.5596 6.87295 11.6268 7.03854 11.6268H16.9639C17.1271 11.6268 17.2855 11.5596 17.3983 11.4421L20.8131 7.87361C20.9931 7.68403 21.0315 7.40086 20.9068 7.17048C19.4261 4.46595 15.9296 2.71653 12.0012 2.71653ZM13.897 10.4246C13.7578 9.73823 13.2563 9.18628 12.6012 8.9727V7.70563C12.6012 7.37446 12.3324 7.10569 12.0012 7.10569C11.6701 7.10569 11.4013 7.37446 11.4013 7.70563V8.9727C10.7461 9.18628 10.2446 9.74063 10.1054 10.4246H7.29527L4.37478 7.37446C4.76114 6.78892 5.2795 6.26337 5.89144 5.80502L6.52976 6.54894C6.64735 6.68813 6.81536 6.75772 6.98575 6.75772C7.12493 6.75772 7.26409 6.70973 7.37688 6.61374C7.62885 6.39776 7.65766 6.0186 7.44168 5.76662L6.91374 5.14988C8.20001 4.45395 9.75505 4.0172 11.4037 3.93081V4.75632C11.4037 5.08749 11.6725 5.35626 12.0036 5.35626C12.3348 5.35626 12.6036 5.08749 12.6036 4.75632V3.93081C14.2522 4.0172 15.8072 4.45395 17.0935 5.14988L16.5656 5.76662C16.3496 6.0186 16.3784 6.39776 16.6304 6.61374C16.7432 6.71213 16.8823 6.75772 17.0215 6.75772C17.1895 6.75772 17.3575 6.68573 17.4775 6.54894L18.1158 5.80502C18.7277 6.26337 19.2461 6.78892 19.6325 7.37446L16.712 10.4246H13.897Z" fill="#413D3C"/>
</svg>
