<svg width="24" height="24" viewBox="0 0 24 24" fill="none" xmlns="http://www.w3.org/2000/svg">
<path d="M17.7127 16.3917L15.2168 18.9213L14.4 18.0935C14.1533 17.8434 13.7557 17.8434 13.509 18.0935C13.2623 18.3435 13.2623 18.7465 13.509 18.9966L14.7713 20.2759C14.8935 20.3998 15.0563 20.4629 15.2168 20.4629C15.3773 20.4629 15.5402 20.3998 15.6623 20.2759L18.6037 17.2948C18.8504 17.0447 18.8504 16.6417 18.6037 16.3917C18.357 16.1416 17.9594 16.1416 17.7127 16.3917Z" fill="#413D3C"/>
<path d="M19.8181 14.5248C18.8145 13.5076 17.4779 12.9468 16.0576 12.9468C14.6372 12.9468 13.303 13.5076 12.297 14.5248C11.2934 15.542 10.7401 16.8966 10.7401 18.3362C10.7401 19.7758 11.2934 21.1281 12.297 22.1477C13.3006 23.1649 14.6372 23.7257 16.0576 23.7257C17.4779 23.7257 18.8121 23.1649 19.8181 22.1477C20.8217 21.1305 21.375 19.7758 21.375 18.3362C21.375 16.8966 20.8217 15.5444 19.8181 14.5248ZM18.8001 21.1135C18.0672 21.8564 17.0947 22.2642 16.0599 22.2642C15.0252 22.2642 14.0503 21.8564 13.3198 21.1135C12.5868 20.3706 12.1844 19.385 12.1844 18.3362C12.1844 17.2875 12.5868 16.2994 13.3198 15.559C14.0527 14.8161 15.0252 14.4083 16.0599 14.4083C17.0947 14.4083 18.0696 14.8161 18.8001 15.559C19.5331 16.3018 19.9355 17.2875 19.9355 18.3362C19.9355 19.385 19.5331 20.3731 18.8001 21.1135Z" fill="#413D3C"/>
<path d="M5.45379 21.9899V8.46288H13.9737V10.9925C13.9737 11.546 14.4168 11.9976 14.9653 11.9976C15.5138 11.9976 15.957 11.5485 15.957 10.9925V8.36577C16.4552 8.16427 16.8073 7.67145 16.8073 7.0961V3.65608C16.8073 2.95205 16.2779 2.36941 15.6025 2.29415V1.36921C15.6025 0.614202 14.9965 0 14.2515 0H5.18073C4.43581 0 3.82981 0.614202 3.82981 1.36921V2.29415C3.15435 2.36698 2.625 2.94963 2.625 3.65608V7.0961C2.625 7.67145 2.9771 8.16427 3.47531 8.36577V22.2666C3.47531 23.2231 4.24179 24 5.18552 24H10.0119C10.5581 24 11.0036 23.5509 11.0036 22.9949C11.0036 22.439 10.5605 21.9899 10.0119 21.9899H5.45379ZM4.60348 4.29213H5.80829V2.00526H13.6192V3.04188H7.47777C7.13046 3.04188 6.84782 3.32834 6.84782 3.68036C6.84782 4.03237 7.13046 4.31883 7.47777 4.31883H14.824V6.45033H4.60348V4.2897V4.29213Z" fill="#413D3C"/>
</svg>
