<svg width="24" height="24" viewBox="0 0 24 24" fill="none" xmlns="http://www.w3.org/2000/svg">
<path d="M19.837 14.5879C18.8453 13.5877 17.5263 13.0366 16.1231 13.0366C14.987 13.0366 13.9063 13.3983 13.0109 14.066V13.5877C13.0109 13.2357 12.7269 12.9492 12.3779 12.9492C12.0289 12.9492 11.7449 13.2357 11.7449 13.5877V15.5226C11.7449 15.8746 12.0289 16.161 12.3779 16.161H14.2962C14.6452 16.161 14.9292 15.8746 14.9292 15.5226C14.9292 15.1705 14.6452 14.8841 14.2962 14.8841H14.082C14.6934 14.5151 15.3914 14.3136 16.1231 14.3136C17.1869 14.3136 18.1882 14.7311 18.9416 15.491C19.695 16.2509 20.109 17.2583 20.109 18.3338C20.109 19.4093 19.695 20.4167 18.9416 21.1766C18.1882 21.9365 17.1893 22.354 16.1231 22.354C15.0568 22.354 14.0579 21.9365 13.3046 21.1766C13.0783 20.9484 12.8785 20.6911 12.71 20.4119C12.5295 20.1109 12.1396 20.0138 11.8411 20.1958C11.5427 20.3779 11.4464 20.7712 11.6269 21.0722C11.846 21.4388 12.1107 21.7787 12.4092 22.0797C13.4008 23.0799 14.7198 23.631 16.1231 23.631C17.5263 23.631 18.8453 23.0799 19.837 22.0797C20.8286 21.0795 21.375 19.7491 21.375 18.3338C21.375 16.9185 20.8286 15.5881 19.837 14.5879Z" fill="#413D3C"/>
<path d="M5.46759 21.9899V8.46288H14.029V10.9925C14.029 11.546 14.4743 11.9976 15.0255 11.9976C15.5767 11.9976 16.022 11.5485 16.022 10.9925V8.36577C16.5226 8.16427 16.8764 7.67145 16.8764 7.0961V3.65608C16.8764 2.95205 16.3445 2.36941 15.6658 2.29415V1.36921C15.6658 0.614202 15.0568 0 14.3082 0H5.1932C4.44464 0 3.83569 0.614202 3.83569 1.36921V2.29415C3.15693 2.36698 2.625 2.94963 2.625 3.65608V7.0961C2.625 7.67145 2.97882 8.16427 3.47947 8.36577V22.2666C3.47947 23.2231 4.24968 24 5.19801 24H10.048C10.5968 24 11.0444 23.5509 11.0444 22.9949C11.0444 22.439 10.5992 21.9899 10.048 21.9899H5.46759ZM4.61313 4.29213H5.82381V2.00526H13.6728V3.04188H7.50145C7.15244 3.04188 6.86842 3.32834 6.86842 3.68036C6.86842 4.03237 7.15244 4.31883 7.50145 4.31883H14.8835V6.45033H4.61313V4.2897V4.29213Z" fill="#413D3C"/>
</svg>
