<svg width="32" height="32" viewBox="0 0 32 32" fill="none" xmlns="http://www.w3.org/2000/svg">
<path d="M31.9511 22.929C31.8135 21.1025 30.7927 19.237 29.1511 17.807C28.527 17.2642 27.8422 16.8125 27.1157 16.4517C27.8806 15.5125 28.3318 14.3068 28.3318 12.9743C28.3318 9.7665 25.7845 6.952 22.8852 6.952C19.9859 6.952 17.4386 9.7665 17.4386 12.9743C17.4386 14.3068 17.8931 15.5125 18.6579 16.4517C18.6483 16.4582 18.6355 16.4648 18.6259 16.468C18.4659 16.3088 18.2995 16.1527 18.1267 16.0032C17.3106 15.2947 16.4082 14.713 15.445 14.271C16.453 13.153 17.0578 11.6645 17.0578 10.007C17.0578 6.27275 14.1041 3 10.7376 3C7.37113 3 4.41743 6.27275 4.41743 10.007C4.41743 11.6645 5.02546 13.1562 6.0303 14.2743C2.59658 15.8635 0.279698 19.055 0.0588909 22.006C-0.104314 24.164 0.0172786 25.854 1.12771 27.0728C2.61256 28.701 5.50226 29 10.6544 29H10.8176C13.5921 29 15.7106 28.9123 17.3075 28.5775C18.6611 28.8733 20.4564 28.9513 22.8148 28.9513H22.9524C27.2886 28.9513 29.727 28.6945 31.0103 27.2873C31.9831 26.2213 32.0887 24.7717 31.9511 22.9257V22.929ZM22.8852 9.318C24.5205 9.318 26.0085 11.06 26.0085 12.9743C26.0085 14.739 24.6677 16.0683 22.8852 16.0683C21.1028 16.0683 19.7619 14.739 19.7619 12.9743C19.7619 11.06 21.25 9.318 22.8852 9.318ZM10.7376 5.366C12.8273 5.366 14.7314 7.57925 14.7314 10.0103C14.7314 12.2723 13.0129 13.9753 10.7376 13.9753C8.46236 13.9753 6.74391 12.269 6.74391 10.0103C6.74391 7.57925 8.64797 5.366 10.7376 5.366ZM10.6544 26.6373C6.5999 26.6373 3.71979 26.439 2.83336 25.4673C2.37254 24.9603 2.23816 24.0112 2.37576 22.1847C2.56777 19.6237 5.05106 16.8125 8.42076 15.9122C9.13439 16.1852 9.91521 16.338 10.7344 16.338C11.5537 16.338 12.3345 16.1885 13.0481 15.9122C16.4178 16.8125 18.9011 19.6237 19.0931 22.1847C19.2307 24.008 19.0963 24.9603 18.6355 25.4673C17.749 26.439 14.869 26.6373 10.8144 26.6373H10.6512H10.6544ZM29.3046 25.6818C28.6166 26.4358 26.2677 26.5885 22.9524 26.5885H22.8148C22.0692 26.5885 21.3748 26.5787 20.7348 26.5592C21.4804 25.3925 21.554 23.8747 21.4132 22.006C21.3204 20.7742 20.8787 19.523 20.1523 18.3628C20.4083 18.2588 20.6708 18.1645 20.9428 18.0865C21.5412 18.3075 22.194 18.431 22.882 18.431C23.57 18.431 24.2197 18.3107 24.8213 18.0865C27.5062 18.8275 29.4775 21.0635 29.6311 23.1045C29.7399 24.5378 29.6407 25.308 29.3014 25.6785L29.3046 25.6818Z" fill="#413D3C"/>
</svg>
