<svg width="24" height="24" viewBox="0 0 24 24" fill="none" xmlns="http://www.w3.org/2000/svg">
<path d="M19.7909 1.36879C19.7909 0.614016 19.1827 0 18.4351 0H9.33174C8.58414 0 7.97596 0.614016 7.97596 1.36879V2.29346C7.29808 2.36627 6.76684 2.94873 6.76684 3.65497V7.09394C6.76684 7.66913 7.1202 8.1618 7.6202 8.36323V10.8241H3.9952C3.44712 10.8241 3 11.2731 3 11.8289C3 12.3847 3.44472 12.8337 3.9952 12.8337H7.6202V14.2825H5.02405C4.47597 14.2825 4.02885 14.7315 4.02885 15.2873C4.02885 15.8431 4.47357 16.292 5.02405 16.292H7.6202V17.7409H3.9952C3.44712 17.7409 3 18.1899 3 18.7457C3 19.3014 3.44472 19.7504 3.9952 19.7504H7.6202V22.2672C7.6202 23.2234 8.38942 24 9.33653 24H18.4303C19.3774 24 20.1466 23.2234 20.1466 22.2672V8.37051C20.6466 8.16908 21 7.67641 21 7.10122V3.66225C21 2.95844 20.4688 2.37597 19.7909 2.30074V1.36879ZM8.75481 4.29326H9.96395V2.00708H17.8029V3.04338H11.6394C11.2909 3.04338 11.0072 3.32976 11.0072 3.68167C11.0072 4.03357 11.2909 4.31995 11.6394 4.31995H19.012V6.4508H8.75481V4.29083V4.29326ZM18.1587 21.9856H9.60817V19.7407H10.3774C10.9255 19.7407 11.3726 19.2917 11.3726 18.736C11.3726 18.1802 10.9279 17.7312 10.3774 17.7312H9.60817V16.2823H11.8053C12.3534 16.2823 12.8005 15.8333 12.8005 15.2776C12.8005 14.7218 12.3558 14.2728 11.8053 14.2728H9.60817V12.8239H10.3774C10.9255 12.8239 11.3726 12.375 11.3726 11.8192C11.3726 11.2634 10.9279 10.8144 10.3774 10.8144H9.60817V8.45303H18.1587V21.9856Z" fill="#413D3C"/>
</svg>
